<svg viewBox="0 0 800 1500" xmlns="http://www.w3.org/2000/svg" xmlns:xlink="http://www.w3.org/1999/xlink">
  <defs>
    <filter id="dropShadow" x="-20%" y="-20%" width="140%" height="140%">
      <feGaussianBlur in="SourceAlpha" stdDeviation="3"/>
      <feOffset dx="2" dy="2" result="offsetblur"/>
      <feComponentTransfer>
        <feFuncA type="linear" slope="0.3"/>
      </feComponentTransfer>
      <feMerge>
        <feMergeNode/>
        <feMergeNode in="SourceGraphic"/>
      </feMerge>
    </filter>
    <linearGradient id="headerGradient" x1="0%" y1="0%" x2="0%" y2="100%">
      <stop offset="0%" stop-color="#6366f1"/>
      <stop offset="100%" stop-color="#818cf8"/>
    </linearGradient>
    <linearGradient id="sectionBg" x1="0%" y1="0%" x2="0%" y2="100%">
        <stop offset="0%" stop-color="#f8fafc"/>
        <stop offset="100%" stop-color="#f0f9ff"/>
    </linearGradient>
    <linearGradient id="kayaGradient" x1="0%" y1="0%" x2="0%" y2="100%">
        <stop offset="0%" stop-color="#fbbf24"/>
        <stop offset="100%" stop-color="#fde047"/>
    </linearGradient>
    
    <!-- Star shape -->
    <g id="star">
      <polygon points="0,-12 3.5,-3.5 12,-3.5 5.5,1.5 8,10.5 0,6 -8,10.5 -5.5,1.5 -12,-3.5 -3.5,-3.5" fill="currentColor"/>
    </g>
  </defs>
  
  <!-- New Layout Background -->
  <rect width="800" height="1500" fill="#f0f9ff"/>
  
  <!-- Decorative background patterns -->
  <g opacity="0.15">
    <circle cx="100" cy="200" r="50" fill="#fbbf24"/>
    <circle cx="700" cy="300" r="40" fill="#34d399"/>
    <circle cx="150" cy="800" r="60" fill="#60a5fa"/>
    <circle cx="650" cy="900" r="35" fill="#f472b6"/>
    <circle cx="200" cy="1200" r="45" fill="#a78bfa"/>
    <circle cx="600" cy="1300" r="55" fill="#fb7185"/>
  </g>
  
  <!-- Geometric patterns -->
  <g opacity="0.1">
    <polygon points="50,100 100,50 150,100 100,150" fill="#3b82f6"/>
    <polygon points="750,150 800,100 850,150 800,200" fill="#8b5cf6"/>
    <polygon points="100,1400 150,1350 200,1400 150,1450" fill="#ec4899"/>
  </g>

  <!-- Maximalist Header -->
  <path d="M 0 0 H 800 V 160 C 600 200, 200 200, 0 160 Z" fill="url(#headerGradient)"/>
  
  <!-- Decorative header elements -->
  <g opacity="0.3">
    <circle cx="200" cy="80" r="8" fill="#ffd700"/>
    <circle cx="600" cy="100" r="6" fill="#ff6b6b"/>
    <circle cx="300" cy="60" r="10" fill="#4ecdc4"/>
    <circle cx="500" cy="120" r="7" fill="#f9ca24"/>
    <use href="#star" transform="translate(100, 100)" fill="#6c5ce7"/>
    <use href="#star" transform="translate(700, 80)" fill="#fd79a8"/>
  </g>
  
  <g transform="translate(40, 40)">
    <circle cx="0" cy="0" r="35" fill="#ef4444" stroke="#fff" stroke-width="3"/>
    <text x="0" y="-10" text-anchor="middle" fill="white" font-family="'Arial Black', sans-serif" font-size="14" font-weight="bold">SE17</text>
    <text x="0" y="5" text-anchor="middle" fill="white" font-family="Arial, sans-serif" font-size="8">Show</text>
    <text x="0" y="15" text-anchor="middle" fill="white" font-family="Arial, sans-serif" font-size="8">PRO</text>
  </g>
  
  <text x="100" y="55" fill="white" font-family="Arial, sans-serif" font-size="18" font-weight="bold">SE SHOWPRO 17th</text>
  <text x="100" y="78" fill="white" font-family="Arial, sans-serif" font-size="13" opacity="0.9">Software Engineering, College of Arts, Media, and Technology</text>
  <text x="100" y="93" fill="white" font-family="Arial, sans-serif" font-size="13" opacity="0.9">Chiang Mai University</text>
  
  <text x="400" y="140" text-anchor="middle" fill="url(#kayaGradient)" font-family="'Arial Black', Gadget, sans-serif" font-size="70" font-weight="bold" letter-spacing="2" filter="url(#dropShadow)" stroke="#d97706" stroke-width="1.5">KAYAAN</text>
  <circle cx="560" cy="125" r="20" fill="#fbbf24" stroke="#d97706" stroke-width="1.5"/>
  <circle cx="553" cy="120" r="3" fill="#1f2937"/>
  <circle cx="567" cy="120" r="3" fill="#1f2937"/>
  <path d="M 550 132 Q 560 140 570 132" stroke="#1f2937" stroke-width="3" fill="none" stroke-linecap="round"/>

  <text x="400" y="175" text-anchor="middle" fill="#1e40af" font-family="Arial, sans-serif" font-size="22" font-weight="bold">Learn Smarter, Together</text>
  
  <!-- New Layout: Start with Features -->
  <text x="400" y="230" text-anchor="middle" fill="#1e40af" font-family="Arial, sans-serif" font-size="32" font-weight="bold">One Platform, Complete Learning</text>
  
  <!-- Maximalist Feature Boxes -->
  <g transform="translate(50, 270)">
    <rect x="0" y="0" width="220" height="120" fill="#e9d5ff" rx="15" filter="url(#dropShadow)"/>
    <!-- Decorative elements -->
    <circle cx="30" cy="30" r="8" fill="#a78bfa" opacity="0.6"/>
    <circle cx="190" cy="90" r="6" fill="#8b5cf6" opacity="0.6"/>
    <circle cx="50" cy="100" r="4" fill="#7c3aed" opacity="0.6"/>
    <use href="#star" transform="translate(180, 20)" fill="#6d28d9" opacity="0.5"/>
    <!-- Main icon -->
    <circle cx="110" cy="50" r="25" fill="#a78bfa" opacity="0.8"/>
    <path d="M 100 45 L 105 50 L 120 35" stroke="white" stroke-width="3" fill="none" stroke-linecap="round" stroke-linejoin="round"/>
    <text x="110" y="105" text-anchor="middle" fill="#581c87" font-family="Arial, sans-serif" font-size="18" font-weight="bold">CREATE</text>
    <text x="110" y="120" text-anchor="middle" fill="#7e22ce" font-family="Arial, sans-serif" font-size="12" font-weight="bold">Quizzes, Flashcards, Notes</text>
  </g>
  
  <g transform="translate(290, 270)">
    <rect x="0" y="0" width="220" height="120" fill="#dbeafe" rx="15" filter="url(#dropShadow)"/>
    <!-- Decorative elements -->
    <circle cx="30" cy="30" r="8" fill="#3b82f6" opacity="0.6"/>
    <circle cx="190" cy="90" r="6" fill="#2563eb" opacity="0.6"/>
    <circle cx="50" cy="100" r="4" fill="#1d4ed8" opacity="0.6"/>
    <use href="#star" transform="translate(180, 20)" fill="#1e40af" opacity="0.5"/>
    <!-- Main group icon -->
    <circle cx="110" cy="50" r="25" fill="#3b82f6" opacity="0.8"/>
    <circle cx="100" cy="45" r="4" fill="white"/>
    <circle cx="110" cy="45" r="4" fill="white"/>
    <circle cx="120" cy="45" r="4" fill="white"/>
    <circle cx="105" cy="55" r="4" fill="white"/>
    <circle cx="115" cy="55" r="4" fill="white"/>
    <text x="110" y="105" text-anchor="middle" fill="#3b82f6" font-family="Arial, sans-serif" font-size="18" font-weight="bold">SHARE</text>
    <text x="110" y="120" text-anchor="middle" fill="#2563eb" font-family="Arial, sans-serif" font-size="12" font-weight="bold">Study Groups & Collaboration</text>
  </g>
  
  <g transform="translate(530, 270)">
    <rect x="0" y="0" width="220" height="120" fill="#fecaca" rx="15" filter="url(#dropShadow)"/>
    <!-- Decorative elements -->
    <circle cx="30" cy="30" r="8" fill="#ef4444" opacity="0.6"/>
    <circle cx="190" cy="90" r="6" fill="#dc2626" opacity="0.6"/>
    <circle cx="50" cy="100" r="4" fill="#b91c1c" opacity="0.6"/>
    <use href="#star" transform="translate(180, 20)" fill="#991b1b" opacity="0.5"/>
    <!-- Main learning icon -->
    <circle cx="110" cy="50" r="25" fill="#ef4444" opacity="0.8"/>
    <path d="M 100 40 L 120 40 L 115 50 L 105 50 Z" fill="white"/>
    <path d="M 105 50 L 115 50 L 110 60" stroke="white" stroke-width="2" fill="none"/>
    <text x="110" y="105" text-anchor="middle" fill="#ef4444" font-family="Arial, sans-serif" font-size="18" font-weight="bold">LEARN</text>
    <text x="110" y="120" text-anchor="middle" fill="#dc2626" font-family="Arial, sans-serif" font-size="12" font-weight="bold">Personalized Learning Paths</text>
  </g>
  
  <!-- Problem Section (new layout) -->
  <text x="400" y="440" text-anchor="middle" fill="#dc2626" font-family="Arial, sans-serif" font-size="28" font-weight="bold">The Learning Challenge</text>
  
  <g transform="translate(80, 470)">
    <rect x="0" y="0" width="160" height="60" fill="#fca5a5" rx="10" filter="url(#dropShadow)"/>
    <circle cx="20" cy="20" r="8" fill="#ef4444" opacity="0.7"/>
    <circle cx="140" cy="40" r="6" fill="#dc2626" opacity="0.7"/>
    <text x="80" y="25" text-anchor="middle" fill="#7f1d1d" font-family="Arial, sans-serif" font-size="14" font-weight="bold">I forget what</text>
    <text x="80" y="45" text-anchor="middle" fill="#7f1d1d" font-family="Arial, sans-serif" font-size="14" font-weight="bold">I read</text>
  </g>
  <g transform="translate(240, 470)">
    <rect x="0" y="0" width="160" height="60" fill="#fcd34d" rx="10" filter="url(#dropShadow)"/>
    <circle cx="20" cy="20" r="8" fill="#f59e0b" opacity="0.7"/>
    <circle cx="140" cy="40" r="6" fill="#d97706" opacity="0.7"/>
    <text x="80" y="20" text-anchor="middle" fill="#92400e" font-family="Arial, sans-serif" font-size="13" font-weight="bold">Too many apps!</text>
    <text x="80" y="40" text-anchor="middle" fill="#92400e" font-family="Arial, sans-serif" font-size="13" font-weight="bold">Not enough time</text>
  </g>
  <g transform="translate(400, 470)">
    <rect x="0" y="0" width="160" height="60" fill="#6ee7b7" rx="10" filter="url(#dropShadow)"/>
    <circle cx="20" cy="20" r="8" fill="#10b981" opacity="0.7"/>
    <circle cx="140" cy="40" r="6" fill="#059669" opacity="0.7"/>
    <text x="80" y="20" text-anchor="middle" fill="#047857" font-family="Arial, sans-serif" font-size="13" font-weight="bold">Studying alone,</text>
    <text x="80" y="40" text-anchor="middle" fill="#047857" font-family="Arial, sans-serif" font-size="13" font-weight="bold">no one to help</text>
  </g>

  <g transform="translate(580, 470)">
    <rect x="0" y="0" width="100" height="60" fill="#a78bfa" rx="10" filter="url(#dropShadow)"/>
    <circle cx="15" cy="15" r="5" fill="#8b5cf6" opacity="0.8"/>
    <circle cx="85" cy="45" r="4" fill="#7c3aed" opacity="0.8"/>
    <use href="#star" transform="translate(50, 30)" fill="#6d28d9" opacity="0.6"/>
    <text x="50" y="25" text-anchor="middle" fill="#1e1b4b" font-family="'Arial Black', sans-serif" font-size="16">KAYAAN</text>
    <text x="50" y="45" text-anchor="middle" fill="#1e1b4b" font-family="Arial, sans-serif" font-size="10" font-weight="bold">The Solution!</text>
  </g>

  <!-- Maximalist Features Section -->
  <text x="400" y="570" text-anchor="middle" fill="#581c87" font-family="Arial, sans-serif" font-size="28" font-weight="bold">Powerful Features</text>
  
  <!-- Decorative elements around features -->
  <g opacity="0.3">
    <circle cx="50" cy="600" r="12" fill="#ec4899"/>
    <circle cx="750" cy="600" r="10" fill="#f59e0b"/>
    <circle cx="100" cy="700" r="8" fill="#10b981"/>
    <circle cx="700" cy="700" r="14" fill="#6366f1"/>
    <use href="#star" transform="translate(30, 650)" fill="#f472b6"/>
    <use href="#star" transform="translate(770, 650)" fill="#8b5cf6"/>
  </g>
  
  <!-- Maximalist Feature Cards -->
  <g transform="translate(60, 610)">
    <rect x="0" y="0" width="150" height="80" fill="#fce7f3" rx="10" filter="url(#dropShadow)"/>
    <!-- Decorative elements -->
    <circle cx="20" cy="20" r="4" fill="#ec4899" opacity="0.7"/>
    <circle cx="130" cy="60" r="3" fill="#be185d" opacity="0.7"/>
    <circle cx="40" cy="70" r="2" fill="#9d174d" opacity="0.7"/>
    <!-- Main AI icon -->
    <circle cx="75" cy="35" r="15" fill="#ec4899"/>
    <circle cx="70" cy="32" r="2" fill="white"/>
    <circle cx="80" cy="32" r="2" fill="white"/>
    <path d="M 70 40 Q 75 43 80 40" stroke="white" stroke-width="2" fill="none"/>
    <text x="75" y="25" fill="#be185d" font-family="Arial, sans-serif" font-size="12" font-weight="bold">AI-Powered</text>
    <text x="75" y="40" fill="#9d174d" font-family="Arial, sans-serif" font-size="10">Content Generation</text>
    <text x="10" y="75" fill="#9d174d" font-family="Arial, sans-serif" font-size="9">Smart study materials</text>
  </g>
  
  <g transform="translate(225, 610)">
    <rect x="0" y="0" width="150" height="80" fill="#fef3c7" rx="10" filter="url(#dropShadow)"/>
    <!-- Decorative elements -->
    <circle cx="20" cy="20" r="4" fill="#f59e0b" opacity="0.7"/>
    <circle cx="130" cy="60" r="3" fill="#d97706" opacity="0.7"/>
    <circle cx="40" cy="70" r="2" fill="#92400e" opacity="0.7"/>
    <!-- Main gamification icon -->
    <circle cx="75" cy="35" r="15" fill="#f59e0b"/>
    <text x="75" y="40" text-anchor="middle" fill="white" font-family="Arial, sans-serif" font-size="12" font-weight="bold">7</text>
    <text x="75" y="25" fill="#92400e" font-family="Arial, sans-serif" font-size="12" font-weight="bold">Gamification</text>
    <text x="75" y="40" fill="#78350f" font-family="Arial, sans-serif" font-size="10">Streaks & Rewards</text>
    <text x="10" y="75" fill="#78350f" font-family="Arial, sans-serif" font-size="9">Stay motivated</text>
  </g>
  
  <g transform="translate(390, 610)">
    <rect x="0" y="0" width="150" height="80" fill="#d1fae5" rx="10" filter="url(#dropShadow)"/>
    <!-- Decorative elements -->
    <circle cx="20" cy="20" r="4" fill="#10b981" opacity="0.7"/>
    <circle cx="130" cy="60" r="3" fill="#059669" opacity="0.7"/>
    <circle cx="40" cy="70" r="2" fill="#047857" opacity="0.7"/>
    <!-- Main timer icon -->
    <circle cx="75" cy="35" r="15" fill="#10b981"/>
    <text x="75" y="40" text-anchor="middle" fill="white" font-family="Arial, sans-serif" font-size="8" font-weight="bold">25</text>
    <text x="75" y="25" fill="#065f46" font-family="Arial, sans-serif" font-size="12" font-weight="bold">Pomodoro Timer</text>
    <text x="75" y="40" fill="#047857" font-family="Arial, sans-serif" font-size="10">Focused study sessions</text>
    <text x="10" y="75" fill="#047857" font-family="Arial, sans-serif" font-size="9">Boost productivity</text>
  </g>
  
  <g transform="translate(555, 610)">
    <rect x="0" y="0" width="150" height="80" fill="#e0e7ff" rx="10" filter="url(#dropShadow)"/>
    <!-- Decorative elements -->
    <circle cx="20" cy="20" r="4" fill="#6366f1" opacity="0.7"/>
    <circle cx="130" cy="60" r="3" fill="#4f46e5" opacity="0.7"/>
    <circle cx="40" cy="70" r="2" fill="#3730a3" opacity="0.7"/>
    <!-- Main customization icon -->
    <circle cx="75" cy="35" r="15" fill="#6366f1"/>
    <circle cx="70" cy="32" r="2" fill="white"/>
    <circle cx="80" cy="32" r="2" fill="white"/>
    <path d="M 70 40 Q 75 43 80 40" stroke="white" stroke-width="2" fill="none"/>
    <text x="75" y="25" fill="#3730a3" font-family="Arial, sans-serif" font-size="12" font-weight="bold">Customization</text>
    <text x="75" y="40" fill="#312e81" font-family="Arial, sans-serif" font-size="10">Avatar & Themes</text>
    <text x="10" y="75" fill="#312e81" font-family="Arial, sans-serif" font-size="9">Personalize your learning</text>
  </g>

  <text x="400" y="730" text-anchor="middle" fill="#581c87" font-family="Arial, sans-serif" font-size="28" font-weight="bold">Why Choose Kayaan?</text>
  
  <g transform="translate(80, 770)">
    <rect x="0" y="0" width="200" height="60" fill="#e0f2fe" rx="10" filter="url(#dropShadow)"/>
    <text x="100" y="28" text-anchor="middle" fill="#0c4a6e" font-family="Arial, sans-serif" font-size="14" font-weight="bold">All-in-One Solution</text>
    <text x="100" y="48" text-anchor="middle" fill="#0369a1" font-family="Arial, sans-serif" font-size="12">Everything you need</text>
  </g>
  <g transform="translate(300, 770)">
    <rect x="0" y="0" width="200" height="60" fill="#f0fdf4" rx="10" filter="url(#dropShadow)"/>
    <text x="100" y="28" text-anchor="middle" fill="#14532d" font-family="Arial, sans-serif" font-size="14" font-weight="bold">AI + Manual Creation</text>
    <text x="100" y="48" text-anchor="middle" fill="#166534" font-family="Arial, sans-serif" font-size="12">Smart & Flexible</text>
  </g>
   <g transform="translate(520, 770)">
    <rect x="0" y="0" width="200" height="60" fill="#fff7ed" rx="10" filter="url(#dropShadow)"/>
    <text x="100" y="28" text-anchor="middle" fill="#9a3412" font-family="Arial, sans-serif" font-size="14" font-weight="bold">Collaborative Learning</text>
    <text x="100" y="48" text-anchor="middle" fill="#c2410c" font-family="Arial, sans-serif" font-size="12">Learn Together</text>
  </g>
  
  <text x="400" y="870" text-anchor="middle" fill="#581c87" font-family="Arial, sans-serif" font-size="24" font-weight="bold">KAYAAN in Action</text>
  
  <!-- UI Screenshots Section -->
  <g transform="translate(50, 890)">
    <rect x="0" y="0" width="700" height="200" fill="#f8fafc" rx="15" filter="url(#dropShadow)"/>
    <text x="350" y="30" text-anchor="middle" fill="#1f2937" font-family="Arial, sans-serif" font-size="20" font-weight="bold">See KAYAAN in Action</text>
    
    <!-- Dashboard UI Mockup -->
    <g transform="translate(50, 50)">
      <rect x="0" y="0" width="180" height="120" fill="white" rx="8" filter="url(#dropShadow)"/>
      <rect x="0" y="0" width="180" height="20" fill="#6366f1" rx="8"/>
      <circle cx="10" cy="10" r="3" fill="white"/>
      <circle cx="20" cy="10" r="3" fill="white"/>
      <circle cx="30" cy="10" r="3" fill="white"/>
      <text x="90" y="14" text-anchor="middle" fill="white" font-family="Arial, sans-serif" font-size="10" font-weight="bold">Dashboard</text>
      
      <!-- Dashboard content -->
      <rect x="10" y="30" width="40" height="25" fill="#e0e7ff" rx="3"/>
      <text x="30" y="45" text-anchor="middle" fill="#6366f1" font-family="Arial, sans-serif" font-size="8" font-weight="bold">AI</text>
      
      <rect x="60" y="30" width="40" height="25" fill="#dbeafe" rx="3"/>
      <text x="80" y="45" text-anchor="middle" fill="#3b82f6" font-family="Arial, sans-serif" font-size="8" font-weight="bold">Manual</text>
      
      <rect x="110" y="30" width="40" height="25" fill="#fecaca" rx="3"/>
      <text x="130" y="45" text-anchor="middle" fill="#ef4444" font-family="Arial, sans-serif" font-size="8" font-weight="bold">Groups</text>
      
      <rect x="10" y="65" width="160" height="8" fill="#f3f4f6" rx="2"/>
      <rect x="10" y="78" width="120" height="8" fill="#f3f4f6" rx="2"/>
      <rect x="10" y="91" width="140" height="8" fill="#f3f4f6" rx="2"/>
      <rect x="10" y="104" width="100" height="8" fill="#f3f4f6" rx="2"/>
    </g>
    
    <!-- Study Group UI Mockup -->
    <g transform="translate(260, 50)">
      <rect x="0" y="0" width="180" height="120" fill="white" rx="8" filter="url(#dropShadow)"/>
      <rect x="0" y="0" width="180" height="20" fill="#3b82f6" rx="8"/>
      <circle cx="10" cy="10" r="3" fill="white"/>
      <circle cx="20" cy="10" r="3" fill="white"/>
      <circle cx="30" cy="10" r="3" fill="white"/>
      <text x="90" y="14" text-anchor="middle" fill="white" font-family="Arial, sans-serif" font-size="10" font-weight="bold">Study Group</text>
      
      <!-- Group members -->
      <circle cx="20" cy="35" r="8" fill="#bfdbfe"/>
      <circle cx="50" cy="35" r="8" fill="#93c5fd"/>
      <circle cx="80" cy="35" r="8" fill="#60a5fa"/>
      <circle cx="110" cy="35" r="8" fill="#3b82f6"/>
      <circle cx="140" cy="35" r="8" fill="#1d4ed8"/>
      
      <!-- Group activity -->
      <rect x="10" y="50" width="160" height="6" fill="#dbeafe" rx="2"/>
      <rect x="10" y="62" width="140" height="6" fill="#dbeafe" rx="2"/>
      <rect x="10" y="74" width="120" height="6" fill="#dbeafe" rx="2"/>
      <rect x="10" y="86" width="100" height="6" fill="#dbeafe" rx="2"/>
      <rect x="10" y="98" width="80" height="6" fill="#dbeafe" rx="2"/>
    </g>
    
    <!-- AI Generation UI Mockup -->
    <g transform="translate(470, 50)">
      <rect x="0" y="0" width="180" height="120" fill="white" rx="8" filter="url(#dropShadow)"/>
      <rect x="0" y="0" width="180" height="20" fill="#ec4899" rx="8"/>
      <circle cx="10" cy="10" r="3" fill="white"/>
      <circle cx="20" cy="10" r="3" fill="white"/>
      <circle cx="30" cy="10" r="3" fill="white"/>
      <text x="90" y="14" text-anchor="middle" fill="white" font-family="Arial, sans-serif" font-size="10" font-weight="bold">AI Generator</text>
      
      <!-- AI generation form -->
      <rect x="10" y="30" width="160" height="12" fill="#fce7f3" rx="2"/>
      <rect x="10" y="48" width="160" height="12" fill="#fce7f3" rx="2"/>
      <rect x="10" y="66" width="100" height="12" fill="#fce7f3" rx="2"/>
      <rect x="120" y="66" width="50" height="12" fill="#ec4899" rx="2"/>
      <text x="145" y="74" text-anchor="middle" fill="white" font-family="Arial, sans-serif" font-size="8" font-weight="bold">Generate</text>
      
      <!-- Generated content preview -->
      <rect x="10" y="85" width="160" height="8" fill="#f3e8ff" rx="2"/>
      <rect x="10" y="98" width="140" height="8" fill="#f3e8ff" rx="2"/>
      <rect x="10" y="111" width="120" height="8" fill="#f3e8ff" rx="2"/>
    </g>
  </g>
  
  <!-- Simple Tech Stack -->
  <text x="400" y="1110" text-anchor="middle" fill="#581c87" font-family="Arial, sans-serif" font-size="24" font-weight="bold">Technology Stack</text>

  <g transform="translate(100, 1130)">
    <rect x="0" y="0" width="80" height="35" fill="#4ade80" rx="5"/>
    <text x="40" y="22" text-anchor="middle" fill="white" font-family="Arial" font-size="12" font-weight="bold">Vue.js</text>
  </g>
  <g transform="translate(200, 1130)">
    <rect x="0" y="0" width="80" height="35" fill="#0ea5e9" rx="5"/>
    <text x="40" y="22" text-anchor="middle" fill="white" font-family="Arial" font-size="10" font-weight="bold">Tailwind</text>
  </g>
  <g transform="translate(300, 1130)">
    <rect x="0" y="0" width="80" height="35" fill="#22c55e" rx="5"/>
    <text x="40" y="22" text-anchor="middle" fill="white" font-family="Arial" font-size="10" font-weight="bold">Spring Boot</text>
  </g>
  <g transform="translate(400, 1130)">
    <rect x="0" y="0" width="80" height="35" fill="#3b82f6" rx="5"/>
    <text x="40" y="22" text-anchor="middle" fill="white" font-family="Arial" font-size="12" font-weight="bold">MySQL</text>
  </g>
  <g transform="translate(500, 1130)">
    <rect x="0" y="0" width="80" height="35" fill="#f472b6" rx="5"/>
    <text x="40" y="22" text-anchor="middle" fill="white" font-family="Arial" font-size="10" font-weight="bold">OpenAI</text>
  </g>
  <g transform="translate(600, 1130)">
    <rect x="0" y="0" width="80" height="35" fill="#10b981" rx="5"/>
    <text x="40" y="22" text-anchor="middle" fill="white" font-family="Arial" font-size="11" font-weight="bold">Supabase</text>
  </g>

  <g transform="translate(60, 1200)">
      <rect x="0" y="0" width="300" height="120" fill="#fee2e2" rx="15" filter="url(#dropShadow)"/>
      <text x="160" y="30" text-anchor="middle" fill="#dc2626" font-family="Arial" font-size="18" font-weight="bold">Team Members</text>
      <text x="30" y="60" fill="#991b1b" font-family="Arial, sans-serif" font-size="14" font-weight="bold">Jakkapan Longlai</text>
      <text x="200" y="60" fill="#7f1d1d" font-family="Arial, sans-serif" font-size="12">652115006</text>
      <text x="30" y="90" fill="#991b1b" font-family="Arial, sans-serif" font-size="14" font-weight="bold">Wasan Renumat</text>
      <text x="200" y="90" fill="#7f1d1d" font-family="Arial, sans-serif" font-size="12">652115044</text>
  </g>
  <g transform="translate(420, 1200)">
      <rect x="0" y="0" width="300" height="120" fill="#fef3c7" rx="15" filter="url(#dropShadow)"/>
      <text x="160" y="30" text-anchor="middle" fill="#d97706" font-family="Arial, sans-serif" font-size="18" font-weight="bold">Advisor</text>
      <text x="160" y="75" text-anchor="middle" fill="#92400e" font-family="Arial, sans-serif" font-size="16" font-weight="bold">Lect. Tisinee Surapunt</text>
  </g>
  
</svg>